<svg width="192" height="46" viewBox="0 0 192 46" fill="none" xmlns="http://www.w3.org/2000/svg">
<path fill-rule="evenodd" clip-rule="evenodd" d="M18 7.50419C8.05957 7.50419 0 15.5676 0 25.5142V26.2647C0 36.6258 8.39355 45.0251 18.75 45.0251H34.6143C35.3789 45.0251 36 44.4049 36 43.6397V25.5142C36 23.3542 35.6191 21.2835 34.9219 19.3645C33.1406 21.3 30.5859 22.5126 27.75 22.5126H18V12.7571C18 10.849 18.5479 9.06886 19.4941 7.56535C19.002 7.52483 18.5039 7.50419 18 7.50419Z" fill="#4521A6"/>
<path fill-rule="evenodd" clip-rule="evenodd" d="M27.75 0C34.7916 0 40.5 5.71156 40.5 12.7571C40.5 19.8027 34.7916 25.5142 27.75 25.5142H15V12.7571C15 5.71156 20.7084 0 27.75 0ZM27.75 3.00168C24.2723 3.00168 21.22 4.82356 19.4941 7.56535C18.5479 9.06886 18 10.849 18 12.7571V22.5126H27.75C30.5859 22.5126 33.1406 21.3 34.9219 19.3645C36.522 17.6266 37.5 15.3064 37.5 12.7571C37.5 7.36934 33.1348 3.00168 27.75 3.00168Z" fill="#FF6B4B"/>
<path d="M19.4941 7.56535C26.6221 8.15137 32.5723 12.8932 34.9219 19.3645C33.1406 21.3 30.5859 22.5126 27.75 22.5126H18V12.7571C18 10.849 18.5479 9.06886 19.4941 7.56535Z" fill="#FF80F1"/>
<path d="M191.333 14.6109V19.245H176.719V14.6109H191.333ZM180.327 8.52051H186.318V32.3857C186.318 33.1912 186.44 33.8091 186.682 34.2394C186.936 34.6586 187.267 34.9455 187.675 35.1C188.084 35.2544 188.536 35.3317 189.033 35.3317C189.408 35.3317 189.75 35.3041 190.059 35.2489C190.379 35.1937 190.621 35.1441 190.787 35.1L191.796 39.7836C191.476 39.894 191.019 40.0153 190.423 40.1477C189.838 40.2801 189.121 40.3574 188.271 40.3794C186.771 40.4236 185.419 40.1974 184.216 39.7009C183.014 39.1934 182.059 38.41 181.353 37.3508C180.658 36.2916 180.316 34.9676 180.327 33.3787V8.52051Z" fill="#333333"/>
<path d="M173.153 21.3291L167.691 21.9249C167.537 21.3733 167.266 20.8547 166.88 20.3692C166.505 19.8838 165.998 19.4921 165.358 19.1942C164.718 18.8963 163.934 18.7473 163.008 18.7473C161.761 18.7473 160.713 19.0177 159.863 19.5583C159.024 20.0989 158.611 20.7995 158.622 21.6601C158.611 22.3994 158.881 23.0007 159.433 23.4641C159.995 23.9275 160.922 24.3082 162.213 24.6061L166.549 25.5329C168.955 26.0514 170.742 26.8734 171.912 27.9988C173.092 29.1242 173.688 30.5972 173.699 32.4177C173.688 34.0176 173.219 35.4298 172.292 36.6545C171.376 37.8682 170.102 38.8171 168.469 39.5011C166.836 40.1852 164.96 40.5273 162.842 40.5273C159.731 40.5273 157.226 39.8763 155.328 38.5743C153.431 37.2614 152.3 35.4353 151.936 33.0963L157.778 32.5336C158.043 33.681 158.605 34.5472 159.466 35.1319C160.326 35.7167 161.446 36.0091 162.826 36.0091C164.249 36.0091 165.391 35.7167 166.251 35.1319C167.123 34.5472 167.559 33.8245 167.559 32.9639C167.559 32.2357 167.277 31.6343 166.715 31.1599C166.163 30.6855 165.303 30.3214 164.133 30.0676L159.797 29.1573C157.358 28.6498 155.554 27.7947 154.385 26.5921C153.215 25.3784 152.636 23.8448 152.647 21.9912C152.636 20.4244 153.061 19.0673 153.922 17.9198C154.793 16.7613 156.001 15.8676 157.546 15.2387C159.102 14.5988 160.895 14.2788 162.925 14.2788C165.904 14.2788 168.248 14.9132 169.959 16.1821C171.68 17.4509 172.745 19.1666 173.153 21.3291Z" fill="#333333"/>
<path d="M140.909 40.0311V14.6102H146.9V40.0311H140.909ZM143.921 11.0022C142.972 11.0022 142.155 10.6878 141.471 10.0589C140.787 9.41894 140.445 8.65212 140.445 7.75841C140.445 6.85368 140.787 6.08686 141.471 5.45795C142.155 4.81801 142.972 4.49805 143.921 4.49805C144.881 4.49805 145.697 4.81801 146.37 5.45795C147.054 6.08686 147.396 6.85368 147.396 7.75841C147.396 8.65212 147.054 9.41894 146.37 10.0589C145.697 10.6878 144.881 11.0022 143.921 11.0022Z" fill="#333333"/>
<path d="M135.421 21.3291L129.96 21.9249C129.805 21.3733 129.535 20.8547 129.149 20.3692C128.774 19.8838 128.266 19.4921 127.626 19.1942C126.986 18.8963 126.203 18.7473 125.276 18.7473C124.029 18.7473 122.981 19.0177 122.132 19.5583C121.293 20.0989 120.879 20.7995 120.89 21.6601C120.879 22.3994 121.15 23.0007 121.701 23.4641C122.264 23.9275 123.191 24.3082 124.482 24.6061L128.818 25.5329C131.223 26.0514 133.011 26.8734 134.18 27.9988C135.361 29.1242 135.956 30.5972 135.967 32.4177C135.956 34.0176 135.488 35.4298 134.561 36.6545C133.645 37.8682 132.371 38.8171 130.738 39.5011C129.105 40.1852 127.229 40.5273 125.111 40.5273C121.999 40.5273 119.495 39.8763 117.597 38.5743C115.699 37.2614 114.568 35.4353 114.204 33.0963L120.046 32.5336C120.311 33.681 120.874 34.5472 121.734 35.1319C122.595 35.7167 123.715 36.0091 125.094 36.0091C126.517 36.0091 127.659 35.7167 128.52 35.1319C129.392 34.5472 129.827 33.8245 129.827 32.9639C129.827 32.2357 129.546 31.6343 128.983 31.1599C128.432 30.6855 127.571 30.3214 126.402 30.0676L122.065 29.1573C119.627 28.6498 117.823 27.7947 116.654 26.5921C115.484 25.3784 114.905 23.8448 114.916 21.9912C114.905 20.4244 115.33 19.0673 116.19 17.9198C117.062 16.7613 118.27 15.8676 119.815 15.2387C121.37 14.5988 123.163 14.2788 125.193 14.2788C128.172 14.2788 130.517 14.9132 132.227 16.1821C133.948 17.4509 135.013 19.1666 135.421 21.3291Z" fill="#333333"/>
<path d="M109.844 21.3291L104.382 21.9249C104.228 21.3733 103.957 20.8547 103.571 20.3692C103.196 19.8838 102.689 19.4921 102.049 19.1942C101.409 18.8963 100.625 18.7473 99.6985 18.7473C98.4517 18.7473 97.4035 19.0177 96.554 19.5583C95.7154 20.0989 95.3017 20.7995 95.3127 21.6601C95.3017 22.3994 95.572 23.0007 96.1237 23.4641C96.6864 23.9275 97.6132 24.3082 98.9041 24.6061L103.24 25.5329C105.645 26.0514 107.433 26.8734 108.602 27.9988C109.783 29.1242 110.379 30.5972 110.39 32.4177C110.379 34.0176 109.91 35.4298 108.983 36.6545C108.067 37.8682 106.793 38.8171 105.16 39.5011C103.527 40.1852 101.651 40.5273 99.533 40.5273C96.4216 40.5273 93.917 39.8763 92.0192 38.5743C90.1215 37.2614 88.9906 35.4353 88.6265 33.0963L94.4686 32.5336C94.7334 33.681 95.2962 34.5472 96.1568 35.1319C97.0174 35.7167 98.1373 36.0091 99.5164 36.0091C100.94 36.0091 102.082 35.7167 102.942 35.1319C103.814 34.5472 104.25 33.8245 104.25 32.9639C104.25 32.2357 103.968 31.6343 103.406 31.1599C102.854 30.6855 101.993 30.3214 100.824 30.0676L96.4878 29.1573C94.0494 28.6498 92.2454 27.7947 91.0759 26.5921C89.9063 25.3784 89.3271 23.8448 89.3381 21.9912C89.3271 20.4244 89.7519 19.0673 90.6125 17.9198C91.4841 16.7613 92.6923 15.8676 94.2369 15.2387C95.7927 14.5988 97.5856 14.2788 99.6157 14.2788C102.595 14.2788 104.939 14.9132 106.65 16.1821C108.371 17.4509 109.435 19.1666 109.844 21.3291Z" fill="#333333"/>
<path d="M61.0538 40.0318H54.5L66.4326 6.13721H74.0126L85.9617 40.0318H79.4079L70.355 13.0882H70.0902L61.0538 40.0318ZM61.269 26.7421H79.1431V31.674H61.269V26.7421Z" fill="#333333"/>
</svg>
