<svg width="212" height="45" viewBox="0 0 212 45" fill="none" xmlns="http://www.w3.org/2000/svg">
<path fill-rule="evenodd" clip-rule="evenodd" d="M4.02616 4.19698C-1.342 9.56514 -1.342 18.2686 4.02616 23.6367L25.3894 45L41.3936 28.9958C42.982 27.4072 43.2406 24.9923 42.1692 23.1348L41.0406 24.2635C38.697 26.6062 34.8983 26.6063 32.5547 24.2635L23.2836 14.9924L28.7732 9.50435L23.4658 4.19698C18.0977 -1.1711 9.39417 -1.1711 4.02616 4.19698Z" fill="#4521A6"/>
<path d="M29.259 3.86602C34.4137 -1.28866 42.7699 -1.28869 47.9246 3.86602C53.079 9.02074 53.0792 17.3769 47.9246 22.5316L43.6188 26.8398L43.2582 27.1814C39.5938 30.4924 34.0003 30.4925 30.3361 27.1814L29.9778 26.8398L18.1304 14.9923L29.259 3.86602ZM45.3482 6.44238C41.6166 2.71071 35.5671 2.71074 31.8354 6.44238L28.7727 9.50426L23.2831 14.9923L32.5542 24.2634C34.8977 26.6062 38.6965 26.6061 41.0401 24.2634L42.1687 23.1347L45.3482 19.9552C49.0798 16.2236 49.0796 10.1741 45.3482 6.44238Z" fill="#FF81F1"/>
<path d="M28.7728 9.50391L41.3932 22.1243C41.702 22.4332 41.9605 22.7732 42.1688 23.1343L41.0402 24.263C38.6966 26.6057 34.8979 26.6059 32.5543 24.263L23.2832 14.9919L28.7728 9.50391Z" fill="#008FB1"/>
<path d="M194.735 24.3494V39.6903H188.564V4.78125H194.599V17.9574H194.905C195.519 16.4801 196.468 15.3153 197.752 14.4631C199.047 13.5994 200.695 13.1676 202.695 13.1676C204.513 13.1676 206.099 13.5483 207.451 14.3097C208.803 15.071 209.849 16.1847 210.587 17.6506C211.337 19.1165 211.712 20.9062 211.712 23.0199V39.6903H205.542V23.9744C205.542 22.2131 205.087 20.8438 204.178 19.8665C203.28 18.8778 202.019 18.3835 200.394 18.3835C199.303 18.3835 198.326 18.6222 197.462 19.0994C196.61 19.5653 195.939 20.2415 195.451 21.1278C194.974 22.0142 194.735 23.0881 194.735 24.3494Z" fill="#333333"/>
<path d="M182.842 13.5086V18.2813H167.791V13.5086H182.842ZM171.506 7.23584H177.677V31.8154C177.677 32.6449 177.802 33.2813 178.052 33.7245C178.313 34.1563 178.654 34.4518 179.075 34.6108C179.495 34.7699 179.961 34.8495 180.472 34.8495C180.859 34.8495 181.211 34.8211 181.529 34.7642C181.859 34.7074 182.109 34.6563 182.279 34.6108L183.319 39.4347C182.989 39.5483 182.518 39.6733 181.904 39.8097C181.302 39.9461 180.563 40.0256 179.688 40.0483C178.143 40.0938 176.751 39.8608 175.512 39.3495C174.273 38.8268 173.291 38.0199 172.563 36.929C171.847 35.8381 171.495 34.4745 171.506 32.8381V7.23584Z" fill="#333333"/>
<path d="M163.422 4.78125V39.6903H157.252V4.78125H163.422Z" fill="#333333"/>
<path d="M137.224 40.2186C135.565 40.2186 134.07 39.9232 132.741 39.3323C131.423 38.73 130.377 37.8436 129.604 36.6732C128.843 35.5027 128.462 34.0595 128.462 32.3436C128.462 30.8663 128.735 29.6448 129.281 28.6788C129.826 27.7129 130.57 26.9402 131.514 26.3607C132.457 25.7811 133.519 25.3436 134.701 25.0482C135.894 24.7413 137.127 24.5198 138.4 24.3834C139.934 24.2243 141.178 24.0823 142.133 23.9573C143.087 23.8209 143.781 23.6163 144.212 23.3436C144.656 23.0595 144.877 22.622 144.877 22.0311V21.9288C144.877 20.6448 144.496 19.6504 143.735 18.9459C142.974 18.2413 141.877 17.8891 140.445 17.8891C138.934 17.8891 137.735 18.2186 136.849 18.8777C135.974 19.5368 135.383 20.3152 135.076 21.2129L129.315 20.3948C129.769 18.8038 130.519 17.4743 131.565 16.4061C132.61 15.3266 133.889 14.5198 135.4 13.9857C136.911 13.4402 138.582 13.1675 140.411 13.1675C141.673 13.1675 142.928 13.3152 144.178 13.6107C145.428 13.9061 146.57 14.3948 147.604 15.0766C148.639 15.747 149.468 16.6618 150.093 17.8209C150.729 18.98 151.048 20.4288 151.048 22.1675V39.6902H145.116V36.0936H144.911C144.536 36.8209 144.008 37.5027 143.326 38.1391C142.656 38.7641 141.809 39.2698 140.786 39.6561C139.775 40.0311 138.587 40.2186 137.224 40.2186ZM138.826 35.6845C140.065 35.6845 141.139 35.4402 142.048 34.9516C142.957 34.4516 143.656 33.7925 144.144 32.9743C144.644 32.1561 144.894 31.2641 144.894 30.2982V27.2129C144.701 27.372 144.371 27.5198 143.906 27.6561C143.451 27.7925 142.94 27.9118 142.371 28.0141C141.803 28.1163 141.241 28.2073 140.684 28.2868C140.127 28.3663 139.644 28.4345 139.235 28.4913C138.315 28.6163 137.491 28.8209 136.764 29.105C136.036 29.3891 135.462 29.7868 135.042 30.2982C134.621 30.7982 134.411 31.4459 134.411 32.2413C134.411 33.3777 134.826 34.2357 135.656 34.8152C136.485 35.3948 137.542 35.6845 138.826 35.6845Z" fill="#333333"/>
<path d="M112.827 40.2016C110.202 40.2016 107.935 39.6561 106.026 38.5652C104.128 37.4629 102.668 35.9061 101.645 33.8948C100.623 31.872 100.111 29.4913 100.111 26.7527C100.111 24.0595 100.623 21.6959 101.645 19.6618C102.68 17.6163 104.123 16.0254 105.975 14.8891C107.827 13.7413 110.003 13.1675 112.503 13.1675C114.117 13.1675 115.64 13.4288 117.072 13.9516C118.515 14.4629 119.787 15.2584 120.89 16.3379C122.003 17.4175 122.878 18.7925 123.515 20.4629C124.151 22.122 124.469 24.0993 124.469 26.3948V28.2868H103.009V24.1277H118.555C118.543 22.9459 118.287 21.8948 117.787 20.9743C117.287 20.0425 116.589 19.3095 115.691 18.7754C114.805 18.2413 113.77 17.9743 112.589 17.9743C111.327 17.9743 110.219 18.2811 109.265 18.8948C108.31 19.497 107.566 20.2925 107.032 21.2811C106.509 22.2584 106.242 23.3323 106.231 24.5027V28.1334C106.231 29.6561 106.509 30.9629 107.066 32.0538C107.623 33.1334 108.401 33.9629 109.401 34.5425C110.401 35.1107 111.572 35.3948 112.912 35.3948C113.81 35.3948 114.623 35.2698 115.35 35.0198C116.077 34.7584 116.708 34.3777 117.242 33.8777C117.776 33.3777 118.18 32.7584 118.452 32.0198L124.214 32.6675C123.85 34.1902 123.157 35.5198 122.134 36.6561C121.123 37.7811 119.827 38.6561 118.248 39.2811C116.668 39.8948 114.861 40.2016 112.827 40.2016Z" fill="#333333"/>
<path d="M65.7905 39.6903V4.78125H72.1144V19.5597H88.2905V4.78125H94.6314V39.6903H88.2905V24.8608H72.1144V39.6903H65.7905Z" fill="#333333"/>
</svg>
