<svg width="688" height="333" viewBox="0 0 688 333" fill="none" xmlns="http://www.w3.org/2000/svg">
<g clip-path="url(#clip0_323_2294)">
<path d="M93.6058 266.214H611.033V4.26855H93.6058V266.214Z" fill="white"/>
<path d="M615.301 270.482H89.3373V0H615.301V270.482ZM97.874 261.945H606.765V8.53665H97.874V261.945Z" fill="#E5E5E5"/>
<path d="M335.101 59.6846V148.592H205.86L181.983 177.24L184.71 148.592H173.092V59.6846H335.101Z" fill="#4521A6"/>
<path d="M413.314 64.959V121.963H496.178L511.486 140.33L509.739 121.963H517.187V64.959H413.314Z" fill="#F0F0F0"/>
<path d="M71.3319 324.566H78.808L82.3648 295.73H71.3312L71.3319 324.566Z" fill="#FFB7B7"/>
<path d="M69.4252 322.126L84.1482 322.125C86.6365 322.125 89.0235 323.114 90.783 324.873C92.5426 326.633 93.5312 329.019 93.5313 331.507V331.812L69.4256 331.813L69.4252 322.126Z" fill="#2F2E41"/>
<path d="M161.15 324.32L168.41 322.534L164.973 293.684L154.259 296.32L161.15 324.32Z" fill="#FFB7B7"/>
<path d="M158.716 322.407L173.012 318.888C175.428 318.294 177.982 318.683 180.111 319.971C182.24 321.259 183.77 323.34 184.365 325.757L184.438 326.053L161.031 331.813L158.716 322.407Z" fill="#2F2E41"/>
<path d="M66.7347 317.691L68.2877 309.745C68.2877 309.745 71.1464 279.065 91.6625 248.446L98.3404 215.185C98.3404 215.185 96.3571 190.008 115.499 176.38L121.4 172.314L142.091 173.5L146.87 199.663L156.498 261.566C156.498 261.566 158.983 261.799 159.915 268.957C161.809 271.963 162.929 275.391 163.176 278.936C163.176 278.936 168.104 292.529 169.424 302.538L169.268 312.332L158.863 317.875L137.176 256.543L121.665 222.255C121.665 222.255 114.199 246.413 102.764 267.109C102.764 267.109 87.102 301.01 83.973 307.897L80.5564 319.169L66.7347 317.691Z" fill="#2F2E41"/>
<path d="M135.914 119.671C144.082 119.671 150.703 113.049 150.703 104.882C150.703 96.714 144.082 90.0928 135.914 90.0928C127.747 90.0928 121.125 96.714 121.125 104.882C121.125 113.049 127.747 119.671 135.914 119.671Z" fill="#FFB7B7"/>
<path d="M135.914 119.671C144.082 119.671 150.703 113.049 150.703 104.882C150.703 96.714 144.082 90.0928 135.914 90.0928C127.747 90.0928 121.125 96.714 121.125 104.882C121.125 113.049 127.747 119.671 135.914 119.671Z" fill="#FFB8B8"/>
<path d="M115.542 176.538L120.424 164.344C116.975 153.171 117.186 141.189 121.028 130.145L121.962 129.376C130.099 122.675 137.241 123.895 143.868 132.092C144.935 133.425 146.184 134.601 147.577 135.589C150.5 137.639 155.137 148.781 149.014 155.312L144.116 183.886C144.632 199.662 133.184 193.721 115.542 176.538Z" fill="#3F3D56"/>
<path d="M185.543 159.952C184.912 159.475 184.184 159.142 183.41 158.976C182.636 158.811 181.835 158.817 181.063 158.994C180.292 159.172 179.569 159.516 178.945 160.004C178.321 160.491 177.812 161.109 177.452 161.814L165.117 160.854L162.705 168.208L180.144 169.32C181.369 169.844 182.744 169.902 184.008 169.48C185.273 169.059 186.339 168.189 187.004 167.034C187.67 165.879 187.889 164.521 187.619 163.216C187.35 161.91 186.612 160.749 185.543 159.952Z" fill="#FFB7B7"/>
<path d="M173.733 171.881L138.582 165.318L127.15 146.15C126.415 144.114 126.52 141.868 127.44 139.909C128.361 137.949 130.023 136.436 132.06 135.701C134.096 134.966 136.341 135.071 138.301 135.992C140.261 136.913 141.774 138.574 142.509 140.611L147.871 155.439L175.67 160.041L173.733 171.881Z" fill="#CCCCCC"/>
<path d="M109.553 101.643C117.389 101.643 123.741 95.2906 123.741 87.4547C123.741 79.6188 117.389 73.2666 109.553 73.2666C101.717 73.2666 95.365 79.6188 95.365 87.4547C95.365 95.2906 101.717 101.643 109.553 101.643Z" fill="#2F2E41"/>
<path d="M97.3151 99.203C99.1515 100.53 101.279 101.398 103.52 101.735C105.76 102.071 108.049 101.866 110.194 101.137C112.34 100.407 114.279 99.1749 115.85 97.5423C117.421 95.9097 118.579 93.9246 119.225 91.753C118.981 93.6991 118.335 95.5733 117.33 97.2573C116.324 98.9413 114.98 100.399 113.383 101.537C111.786 102.675 109.97 103.47 108.05 103.872C106.13 104.273 104.148 104.272 102.228 103.868C100.309 103.465 98.4939 102.667 96.8981 101.527C95.3022 100.387 93.9601 98.928 92.9565 97.2428C91.9529 95.5576 91.3096 93.6827 91.0672 91.7363C90.8248 89.7899 90.9886 87.8144 91.5482 85.9346C91.2303 88.4602 91.598 91.0248 92.6127 93.3593C93.6274 95.6939 95.2517 97.7123 97.3151 99.203Z" fill="#2F2E41"/>
<path d="M153.308 99.2191C150.831 94.7847 149.883 92.9324 146.689 90.2359C143.865 87.8512 140.391 87.1509 137.59 89.4105C134.275 87.9784 130.587 87.6536 127.073 88.4845C123.559 89.3154 120.407 91.2576 118.085 94.0226C115.763 96.7876 114.394 100.228 114.183 103.833C113.972 107.437 114.929 111.014 116.913 114.031C118.896 117.048 121.8 119.345 125.192 120.581C128.585 121.816 132.286 121.924 135.745 120.889C139.204 119.854 142.237 117.731 144.394 114.834C146.55 111.938 147.714 108.423 147.714 104.813C147.712 104.179 147.673 103.545 147.6 102.915C150.035 102.573 150.872 99.5611 153.308 99.2191Z" fill="#2F2E41"/>
<path d="M589.471 205.364C589.518 204.386 589.778 203.429 590.234 202.562C590.69 201.695 591.331 200.938 592.111 200.345C592.891 199.753 593.791 199.338 594.749 199.131C595.707 198.924 596.698 198.929 597.653 199.147L606.516 186.657L615.419 190.192L602.656 207.654C602.184 209.234 601.149 210.587 599.747 211.455C598.344 212.324 596.672 212.648 595.047 212.365C593.421 212.083 591.956 211.215 590.929 209.924C589.901 208.634 589.382 207.011 589.471 205.364Z" fill="#A0616A"/>
<path d="M599.193 194.623L614.95 168.122L608.531 151.002L617.274 127.686L617.596 127.824C617.808 127.914 622.776 130.131 623.512 138.071L633.56 169.65L606.744 204.439L599.193 194.623Z" fill="#3F3D56"/>
<path d="M513.615 97.1956C514.587 97.3175 515.52 97.6511 516.35 98.1728C517.179 98.6945 517.884 99.3917 518.414 100.215C518.945 101.039 519.289 101.969 519.421 102.94C519.554 103.91 519.472 104.898 519.181 105.834L530.948 115.636L526.736 124.239L510.313 110.164C508.773 109.571 507.505 108.435 506.747 106.969C505.99 105.504 505.796 103.812 506.203 102.213C506.611 100.615 507.59 99.2209 508.956 98.2961C510.322 97.3714 511.979 96.9798 513.615 97.1956Z" fill="#A0616A"/>
<path d="M523.572 107.719L548.776 125.478L566.34 120.401L588.911 130.921L588.748 131.232C588.642 131.436 586.047 136.217 578.075 136.338L545.814 143.914L513.202 114.488L523.572 107.719Z" fill="#3F3D56"/>
<path d="M569.69 323.677H560.928L556.76 289.88L569.692 289.881L569.69 323.677Z" fill="#A0616A"/>
<path d="M554.669 321.173H571.568V331.812H544.03C544.03 330.415 544.305 329.032 544.84 327.741C545.374 326.45 546.158 325.277 547.146 324.289C548.134 323.301 549.307 322.517 550.598 321.983C551.889 321.448 553.272 321.173 554.669 321.173Z" fill="#2F2E41"/>
<path d="M604.711 323.677H595.948L591.78 289.88L604.712 289.881L604.711 323.677Z" fill="#A0616A"/>
<path d="M589.69 321.173H606.588V331.812H579.05C579.05 330.415 579.325 329.032 579.86 327.741C580.395 326.45 581.178 325.277 582.166 324.289C583.154 323.301 584.327 322.517 585.618 321.983C586.909 321.448 588.292 321.173 589.69 321.173Z" fill="#2F2E41"/>
<path d="M607.827 200.316L607.112 250.345L606.397 316.097L590.674 314.668L582.812 223.901L572.806 314.668H556.574L554.939 223.186L560.657 203.175L607.827 200.316Z" fill="#2F2E41"/>
<path d="M559.089 203.48L556.694 203.376L567.82 142.084L563.265 123.559C563.028 122.595 563.153 121.578 563.616 120.7C564.079 119.822 564.848 119.145 565.777 118.796L573.974 115.722L576.87 107.759L599.717 110.221L600.279 116.444C602.754 117.238 623.142 124.028 621.735 131.765C620.347 139.401 612.149 163.426 611.733 164.643L610.297 199.098L610.121 199.186C609.908 199.292 594.16 207.035 577.052 207.034C570.88 207.137 564.757 205.926 559.089 203.48Z" fill="#3F3D56"/>
<path d="M587.398 103.818C596.483 103.818 603.848 96.4531 603.848 87.368C603.848 78.2829 596.483 70.918 587.398 70.918C578.313 70.918 570.948 78.2829 570.948 87.368C570.948 96.4531 578.313 103.818 587.398 103.818Z" fill="#A0616A"/>
<path d="M600.722 103.292C597.587 106.632 591.765 104.839 591.357 100.277C591.325 99.9227 591.327 99.5662 591.364 99.2124C591.575 97.1916 592.742 95.357 592.462 93.2232C592.399 92.6922 592.201 92.1861 591.888 91.753C589.39 88.4077 583.525 93.2492 581.168 90.2208C579.722 88.3639 581.421 85.4403 580.312 83.3648C578.848 80.6256 574.511 81.9769 571.791 80.4767C568.765 78.8076 568.946 74.1648 570.938 71.3408C573.367 67.8968 577.626 66.0591 581.833 65.7943C586.039 65.5294 590.216 66.6665 594.143 68.1968C598.605 69.9356 603.029 72.3386 605.775 76.2618C609.114 81.0328 609.435 87.4471 607.765 93.0259C606.749 96.4195 603.282 100.565 600.722 103.292Z" fill="#2F2E41"/>
<path d="M422.495 319.133L424.938 312.847L401.855 300.429L398.248 309.707L422.495 319.133Z" fill="#FFB8B8"/>
<path d="M435.588 302.734C434.552 302.33 433.447 302.135 432.336 302.159C431.224 302.183 430.128 302.426 429.111 302.874C428.093 303.322 427.174 303.966 426.406 304.769C425.637 305.573 425.035 306.52 424.632 307.556L422.984 311.793L420.442 318.334L419.821 319.938L427.966 323.107L435.844 302.835L435.588 302.734Z" fill="#2F2E41"/>
<path d="M420.443 307.035L419.38 309.854L416.727 316.889L416.664 317.065C409.906 317.933 402.497 316.231 395.644 313.586C392.903 312.529 390.217 311.33 387.599 309.996C383.724 308.038 380.254 305.971 377.486 304.204C373.318 301.529 370.741 299.521 370.741 299.521C370.741 299.521 370.061 300.136 368.829 301.191C367.177 302.604 364.539 304.81 361.197 307.407C359.922 308.404 358.553 309.448 357.09 310.537C346.307 318.535 332.469 297.193 332.469 297.193C332.469 297.193 336.361 294.716 337.378 294.234C340.652 292.686 348.343 289.031 354.979 285.783C358.397 284.107 361.532 282.536 363.636 281.419C371.088 277.451 380.351 284.959 380.351 284.959L420.443 307.035Z" fill="#2F2E41"/>
<path opacity="0.14" d="M420.443 307.035L419.38 309.854L416.727 316.889L416.664 317.065C409.906 317.933 402.497 316.231 395.644 313.586C392.903 312.529 390.217 311.33 387.599 309.996C383.724 308.038 380.254 305.971 377.486 304.204C373.318 301.529 370.741 299.521 370.741 299.521C370.741 299.521 370.061 300.136 368.829 301.191C367.177 302.604 364.539 304.81 361.197 307.407C359.922 308.404 358.553 309.448 357.09 310.537C346.307 318.535 332.469 297.193 332.469 297.193C332.469 297.193 336.361 294.716 337.378 294.234C340.652 292.686 348.343 289.031 354.979 285.783C358.397 284.107 361.532 282.536 363.636 281.419C371.088 277.451 380.351 284.959 380.351 284.959L420.443 307.035Z" fill="black"/>
<path d="M312.586 247.869H280.679C280.023 247.868 279.394 247.607 278.93 247.143C278.465 246.679 278.204 246.049 278.204 245.393V231.64C278.204 226.752 280.145 222.065 283.601 218.609C287.057 215.153 291.745 213.211 296.633 213.211C301.52 213.211 306.208 215.153 309.664 218.609C313.12 222.065 315.062 226.752 315.062 231.64V245.393C315.061 246.049 314.8 246.679 314.336 247.143C313.872 247.607 313.243 247.868 312.586 247.869Z" fill="#2F2E41"/>
<path d="M342.93 265.144C342.187 265.274 341.482 265.566 340.864 265.998C340.246 266.431 339.731 266.993 339.354 267.646C338.977 268.3 338.748 269.028 338.683 269.779C338.618 270.53 338.718 271.287 338.977 271.995L330.301 279.975L333.864 286.43L345.958 274.989C347.119 274.475 348.052 273.553 348.578 272.398C349.105 271.243 349.19 269.935 348.817 268.721C348.444 267.508 347.638 266.473 346.553 265.814C345.468 265.154 344.179 264.916 342.93 265.144Z" fill="#FFB8B8"/>
<path d="M316.823 301.424C316.431 301.424 316.039 301.408 315.646 301.374C313.305 301.178 311.053 300.392 309.1 299.087C307.146 297.783 305.557 296.004 304.48 293.917L290.58 267.163C289.669 265.41 289.469 263.373 290.022 261.476C290.574 259.58 291.837 257.969 293.546 256.98C295.256 255.99 297.282 255.698 299.201 256.164C301.121 256.629 302.788 257.817 303.854 259.48L316.678 288.254L334.127 274.076L344.23 278.009L327.168 296.846C325.856 298.286 324.259 299.437 322.478 300.225C320.697 301.013 318.771 301.422 316.823 301.424Z" fill="#4521A6"/>
<path d="M420.544 327.974L423.464 321.894L401.403 307.739L397.094 316.713L420.544 327.974Z" fill="#FFB8B8"/>
<path d="M434.86 312.629C433.858 312.148 432.771 311.868 431.661 311.807C430.551 311.745 429.44 311.904 428.391 312.272C427.342 312.64 426.376 313.212 425.548 313.954C424.72 314.696 424.046 315.593 423.566 316.596L421.596 320.694L418.56 327.021L417.817 328.572L425.695 332.357L435.107 312.75L434.86 312.629Z" fill="#2F2E41"/>
<path d="M419.429 315.755L418.152 318.483L414.967 325.294L414.89 325.464C408.085 325.811 400.829 323.544 394.2 320.381C391.548 319.116 388.962 317.715 386.454 316.184C382.741 313.934 379.44 311.607 376.816 309.632C372.867 306.645 370.451 304.444 370.451 304.444C370.451 304.444 369.725 305.005 368.416 305.962C366.661 307.244 363.861 309.241 360.329 311.574C358.981 312.47 357.536 313.406 355.994 314.379C344.629 321.525 328.466 330.228 314.719 332.066C290.574 335.295 296.257 303.074 296.257 303.074L315.472 293.095L323.631 294.751L332.713 296.588L335.931 297.243C335.931 297.243 336.542 297.012 337.593 296.61C340.976 295.318 348.925 292.264 355.791 289.536C359.328 288.127 362.574 286.802 364.758 285.85C372.492 282.467 381.151 290.663 381.151 290.663L419.429 315.755Z" fill="#2F2E41"/>
<path d="M261.094 332.834C261.829 332.666 262.518 332.338 263.113 331.874C263.708 331.41 264.193 330.822 264.536 330.15C264.879 329.478 265.07 328.739 265.096 327.986C265.122 327.232 264.983 326.482 264.688 325.788L272.94 317.37L269.047 311.107L257.561 323.159C256.428 323.732 255.544 324.701 255.078 325.881C254.611 327.062 254.594 328.373 255.03 329.566C255.465 330.759 256.323 331.75 257.441 332.352C258.559 332.955 259.859 333.126 261.094 332.834Z" fill="#FFB8B8"/>
<path d="M301.15 248.483C308.255 248.483 314.015 242.723 314.015 235.617C314.015 228.512 308.255 222.752 301.15 222.752C294.045 222.752 288.285 228.512 288.285 235.617C288.285 242.723 294.045 248.483 301.15 248.483Z" fill="#FFB8B8"/>
<path d="M284.413 271.33L295.62 303.103L295.553 303.214C293.994 305.791 293.484 307.87 294.08 309.225C294.236 309.57 294.466 309.876 294.753 310.123C295.039 310.371 295.376 310.553 295.74 310.658L322.261 292.12L321.332 284.691L321.384 284.608C323.947 280.506 324.777 276.792 323.851 273.568C323.012 270.96 321.201 268.775 318.793 267.467L318.7 267.394L305.473 251.295L287.791 254.436L284.413 271.33Z" fill="#4521A6"/>
<path d="M267.37 327.099L259.862 317.859L277.961 287.982L286.399 261.899C286.86 260.474 287.621 259.165 288.631 258.059C289.641 256.953 290.876 256.076 292.253 255.488C293.631 254.9 295.118 254.614 296.615 254.649C298.112 254.685 299.585 255.04 300.933 255.693C302.281 256.345 303.473 257.279 304.43 258.431C305.387 259.584 306.085 260.927 306.478 262.372C306.872 263.817 306.951 265.33 306.71 266.808C306.469 268.286 305.915 269.696 305.083 270.941L289.592 294.15L267.37 327.099Z" fill="#4521A6"/>
<path d="M319.422 233.015H299.911L299.711 230.214L298.711 233.015H295.707L295.31 227.464L293.328 233.015H287.515V232.74C287.519 228.875 289.056 225.17 291.789 222.437C294.522 219.704 298.228 218.166 302.093 218.162H304.843C308.709 218.166 312.414 219.704 315.147 222.437C317.88 225.17 319.417 228.875 319.422 232.74V233.015Z" fill="#2F2E41"/>
<path d="M299.752 250.436C299.605 250.436 299.458 250.423 299.314 250.397L285.027 247.877V224.266H300.754L300.364 224.72C294.947 231.037 299.028 241.282 301.943 246.826C302.158 247.232 302.254 247.691 302.22 248.149C302.185 248.607 302.022 249.046 301.749 249.415C301.521 249.731 301.221 249.989 300.873 250.166C300.526 250.344 300.142 250.436 299.752 250.436Z" fill="#2F2E41"/>
<path d="M513.195 208.136V241.399H365.839L344.561 266.928L346.991 241.399H336.638V208.136H513.195Z" fill="#F0F0F0"/>
<path d="M397.9 230.743C401.23 230.743 403.929 228.043 403.929 224.714C403.929 221.385 401.23 218.686 397.9 218.686C394.571 218.686 391.872 221.385 391.872 224.714C391.872 228.043 394.571 230.743 397.9 230.743Z" fill="white"/>
<path d="M377.554 230.743C380.884 230.743 383.583 228.043 383.583 224.714C383.583 221.385 380.884 218.686 377.554 218.686C374.225 218.686 371.526 221.385 371.526 224.714C371.526 228.043 374.225 230.743 377.554 230.743Z" fill="white"/>
<path d="M357.208 230.743C360.537 230.743 363.237 228.043 363.237 224.714C363.237 221.385 360.537 218.686 357.208 218.686C353.879 218.686 351.18 221.385 351.18 224.714C351.18 228.043 353.879 230.743 357.208 230.743Z" fill="white"/>
<path d="M687.246 332.473H0.75356C0.553703 332.473 0.362032 332.394 0.220712 332.252C0.0793921 332.111 0 331.919 0 331.719C0 331.52 0.0793921 331.328 0.220712 331.187C0.362032 331.045 0.553703 330.966 0.75356 330.966H687.246C687.446 330.966 687.638 331.045 687.779 331.187C687.921 331.328 688 331.52 688 331.719C688 331.919 687.921 332.111 687.779 332.252C687.638 332.394 687.446 332.473 687.246 332.473Z" fill="#CACACA"/>
</g>
<defs>
<clipPath id="clip0_323_2294">
<rect width="688" height="332.974" fill="white"/>
</clipPath>
</defs>
</svg>
