<svg width="2268" height="312" viewBox="0 0 2268 312" fill="none" xmlns="http://www.w3.org/2000/svg">
<path fill-rule="evenodd" clip-rule="evenodd" d="M156 312C242.157 312 312 242.157 312 156C312 69.8427 242.157 0 156 0C69.8427 0 0 69.8427 0 156C0 242.157 69.8427 312 156 312ZM168.741 57.5375C217.55 63.7905 255.273 105.491 255.273 156C255.273 210.83 210.826 255.273 156 255.273C101.174 255.273 56.7273 210.83 56.7273 156C56.7273 105.491 94.4462 63.7974 143.252 57.5375L156 35.4545L168.741 57.5375Z" fill="url(#paint0_linear_388_2721)"/>
<path fill-rule="evenodd" clip-rule="evenodd" d="M1680.54 156C1680.54 242.157 1750.39 312 1836.54 312C1922.7 312 1992.54 242.157 1992.54 156C1992.54 69.8427 1922.7 -3.05292e-06 1836.54 -6.81898e-06C1750.39 -1.0585e-05 1680.54 69.8427 1680.54 156ZM1935.01 168.741C1928.75 217.55 1887.05 255.273 1836.54 255.273C1781.72 255.273 1737.27 210.826 1737.27 156C1737.27 101.174 1781.72 56.7273 1836.54 56.7273C1887.05 56.7273 1928.75 94.4462 1935.01 143.252L1957.09 156L1935.01 168.741Z" fill="#333333"/>
<path d="M375.818 307.844V4.14844H489.704C513.035 4.14844 532.609 8.49825 548.427 17.1979C564.343 25.8975 576.355 37.8595 584.461 53.0838C592.666 68.2093 596.769 85.4108 596.769 104.688C596.769 124.164 592.666 141.464 584.461 156.59C576.256 171.715 564.145 183.628 548.13 192.327C532.115 200.928 512.393 205.228 488.963 205.228H413.484V160H481.548C495.191 160 506.362 157.628 515.062 152.882C523.761 148.137 530.187 141.612 534.339 133.308C538.59 125.004 540.716 115.464 540.716 104.688C540.716 93.9127 538.59 84.4222 534.339 76.2169C530.187 68.0116 523.712 61.6351 514.913 57.0876C506.214 52.4412 494.993 50.118 481.252 50.118H430.834V307.844H375.818Z" fill="#333333"/>
<path d="M625.679 307.844V4.14844H823.2V50.2663H680.694V132.715H812.968V178.833H680.694V261.726H824.386V307.844H625.679Z" fill="#333333"/>
<path d="M853.3 307.844V4.14844H967.186C990.517 4.14844 1010.09 8.20167 1025.91 16.3081C1041.82 24.4146 1053.84 35.7834 1061.94 50.4146C1070.15 64.9469 1074.25 81.9013 1074.25 101.278C1074.25 120.753 1070.1 137.658 1061.79 151.993C1053.59 166.228 1041.48 177.251 1025.46 185.061C1009.45 192.772 989.775 196.628 966.444 196.628H885.33V150.955H959.03C972.672 150.955 983.844 149.076 992.543 145.32C1001.24 141.464 1007.67 135.878 1011.82 128.563C1016.07 121.148 1018.2 112.053 1018.2 101.278C1018.2 90.5021 1016.07 81.3081 1011.82 73.696C1007.57 65.9849 1001.09 60.1522 992.395 56.1979C983.695 52.1446 972.475 50.118 958.733 50.118H908.315V307.844H853.3ZM1010.19 170.232L1085.37 307.844H1023.98L950.132 170.232H1010.19Z" fill="#333333"/>
<path d="M1173 307.844H1114.28L1221.2 4.14844H1289.11L1396.18 307.844H1337.46L1256.34 66.4298H1253.97L1173 307.844ZM1174.93 188.768H1335.08V232.958H1174.93V188.768Z" fill="#333333"/>
<path d="M1425.09 50.2663V4.14844H1667.39V50.2663H1573.53V307.844H1518.96V50.2663H1425.09Z" fill="#333333"/>
<path d="M2035.09 307.844V4.14844H2148.98C2172.31 4.14844 2191.88 8.20167 2207.7 16.3081C2223.62 24.4146 2235.63 35.7834 2243.73 50.4146C2251.94 64.9469 2256.04 81.9013 2256.04 101.278C2256.04 120.753 2251.89 137.658 2243.59 151.993C2235.38 166.228 2223.27 177.251 2207.25 185.061C2191.24 192.772 2171.57 196.628 2148.24 196.628H2067.12V150.955H2140.82C2154.46 150.955 2165.63 149.076 2174.33 145.32C2183.03 141.464 2189.46 135.878 2193.61 128.563C2197.86 121.148 2199.99 112.053 2199.99 101.278C2199.99 90.5021 2197.86 81.3081 2193.61 73.696C2189.36 65.9849 2182.89 60.1522 2174.19 56.1979C2165.49 52.1446 2154.27 50.118 2140.52 50.118H2090.11V307.844H2035.09ZM2191.98 170.232L2267.16 307.844H2205.77L2131.92 170.232H2191.98Z" fill="#333333"/>
<defs>
<linearGradient id="paint0_linear_388_2721" x1="156" y1="0" x2="156" y2="312" gradientUnits="userSpaceOnUse">
<stop stop-color="#7649DD"/>
<stop offset="1" stop-color="#994DDF"/>
</linearGradient>
</defs>
</svg>
