<svg width="211" height="45" viewBox="0 0 211 45" fill="none" xmlns="http://www.w3.org/2000/svg">
<rect x="11.0361" y="1.89844" width="29.4296" height="29.4296" rx="1.2" fill="#4521A6"/>
<path d="M26.1182 32.8257C26.1181 33.4505 26.0419 34.0575 25.9014 34.6392H10.4932C9.16773 34.6392 8.09286 33.5652 8.09277 32.2397V17.2964C8.78469 17.0923 9.51734 16.9819 10.2754 16.9819H26.1182V32.8257Z" fill="#FF80F1"/>
<path d="M28.6934 35.4019C28.6932 39.6542 25.2465 43.1019 20.9941 43.1021H7.7002C3.4477 43.1021 0.000154935 39.6543 0 35.4019V22.1079C0 17.8553 3.4476 14.4077 7.7002 14.4077H28.6934V35.4019ZM10.2754 16.9839C6.02294 16.9839 2.57542 20.4307 2.5752 24.6831V32.8276C2.57543 37.08 6.02294 40.5269 10.2754 40.5269H18.4189C22.6712 40.5267 26.1179 37.0799 26.1182 32.8276V16.9839H10.2754Z" fill="#008FB1"/>
<path d="M191.842 44.9999C191.027 44.9999 190.272 44.9338 189.578 44.8016C188.895 44.6804 188.349 44.5371 187.942 44.3719L189.33 39.7117C190.2 39.9651 190.977 40.0863 191.66 40.0753C192.343 40.0643 192.943 39.8494 193.461 39.4308C193.99 39.0232 194.436 38.3401 194.8 37.3816L195.312 36.01L186.107 10.0981H192.453L198.303 29.2676H198.568L204.434 10.0981H210.796L200.633 38.5549C200.16 39.899 199.532 41.0503 198.749 42.0088C197.967 42.9782 197.009 43.7164 195.874 44.2232C194.75 44.741 193.406 44.9999 191.842 44.9999Z" fill="#333333"/>
<path d="M183.12 10.097V14.7241H168.528V10.097H183.12ZM172.131 4.01562H178.113V27.8453C178.113 28.6495 178.234 29.2665 178.477 29.6961C178.73 30.1148 179.061 30.4012 179.468 30.5555C179.876 30.7097 180.327 30.7868 180.823 30.7868C181.198 30.7868 181.539 30.7593 181.848 30.7042C182.167 30.6491 182.41 30.5995 182.575 30.5555L183.583 35.2322C183.263 35.3423 182.806 35.4635 182.211 35.5957C181.627 35.7279 180.911 35.805 180.063 35.8271C178.565 35.8711 177.215 35.6453 176.014 35.1495C174.813 34.6428 173.861 33.8606 173.155 32.8029C172.461 31.7453 172.12 30.4233 172.131 28.8368V4.01562Z" fill="#333333"/>
<path d="M158.311 35.4801V10.097H164.294V35.4801H158.311ZM161.319 6.4945C160.372 6.4945 159.556 6.18051 158.873 5.55255C158.19 4.91356 157.849 4.14788 157.849 3.25551C157.849 2.35212 158.19 1.58644 158.873 0.958473C159.556 0.319491 160.372 0 161.319 0C162.277 0 163.093 0.319491 163.765 0.958473C164.448 1.58644 164.789 2.35212 164.789 3.25551C164.789 4.14788 164.448 4.91356 163.765 5.55255C163.093 6.18051 162.277 6.4945 161.319 6.4945Z" fill="#333333"/>
<path d="M152.16 1.63623V35.4803H146.178V1.63623H152.16Z" fill="#333333"/>
<path d="M126.76 35.9934C125.152 35.9934 123.703 35.707 122.414 35.1341C121.136 34.5502 120.122 33.6909 119.373 32.5561C118.635 31.4214 118.266 30.0222 118.266 28.3587C118.266 26.9265 118.531 25.7422 119.059 24.8057C119.588 23.8693 120.31 23.1201 121.224 22.5583C122.139 21.9964 123.169 21.5722 124.314 21.2858C125.471 20.9883 126.667 20.7735 127.9 20.6413C129.388 20.4871 130.594 20.3494 131.52 20.2282C132.445 20.096 133.117 19.8977 133.536 19.6333C133.965 19.3578 134.18 18.9337 134.18 18.3608V18.2616C134.18 17.0167 133.811 16.0527 133.073 15.3697C132.335 14.6866 131.272 14.3451 129.883 14.3451C128.418 14.3451 127.256 14.6646 126.397 15.3036C125.548 15.9426 124.975 16.6972 124.678 17.5676L119.092 16.7744C119.533 15.232 120.26 13.943 121.274 12.9074C122.287 11.8608 123.527 11.0786 124.992 10.5608C126.457 10.032 128.077 9.76758 129.85 9.76758C131.073 9.76758 132.291 9.9108 133.503 10.1972C134.714 10.4837 135.822 10.9574 136.824 11.6184C137.827 12.2684 138.631 13.1553 139.237 14.279C139.854 15.4027 140.162 16.8074 140.162 18.493V35.4811H134.411V31.9943H134.213C133.85 32.6994 133.337 33.3604 132.676 33.9773C132.026 34.5833 131.206 35.0735 130.214 35.4481C129.233 35.8117 128.082 35.9934 126.76 35.9934ZM128.314 31.5977C129.514 31.5977 130.556 31.3608 131.437 30.8871C132.318 30.4023 132.996 29.7633 133.47 28.9701C133.954 28.1769 134.197 27.3121 134.197 26.3756V23.3845C134.009 23.5388 133.69 23.682 133.238 23.8142C132.797 23.9464 132.302 24.0621 131.751 24.1612C131.2 24.2604 130.655 24.3485 130.115 24.4256C129.575 24.5028 129.107 24.5689 128.71 24.6239C127.818 24.7451 127.019 24.9434 126.314 25.2189C125.609 25.4943 125.053 25.8799 124.645 26.3756C124.237 26.8604 124.033 27.4883 124.033 28.2595C124.033 29.3612 124.436 30.193 125.24 30.7549C126.044 31.3167 127.069 31.5977 128.314 31.5977Z" fill="#333333"/>
<path d="M107.322 24.8058V10.0981H113.305V35.4812H107.504V30.9698H107.24C106.667 32.391 105.725 33.5532 104.414 34.4566C103.114 35.36 101.511 35.8117 99.6051 35.8117C97.9415 35.8117 96.4707 35.4426 95.1928 34.7045C93.9258 33.9554 92.9343 32.8702 92.2182 31.449C91.5021 30.0168 91.144 28.2871 91.144 26.26V10.0981H97.1262V25.3346C97.1262 26.9431 97.5669 28.221 98.4483 29.1685C99.3296 30.116 100.486 30.5897 101.919 30.5897C102.8 30.5897 103.654 30.3748 104.48 29.9452C105.306 29.5155 105.984 28.8765 106.513 28.0282C107.053 27.1689 107.322 26.0948 107.322 24.8058Z" fill="#333333"/>
<path d="M67.934 24.1111H73.4866L76.7752 28.3747L79.1218 31.151L84.7569 38.3891H78.8078L74.9739 33.5306L73.3379 31.2171L67.934 24.1111ZM85.5667 18.5586C85.5667 22.2052 84.8836 25.3285 83.5175 27.9285C82.1624 30.5175 80.3116 32.5005 77.965 33.8777C75.6294 35.2548 72.9798 35.9433 70.0163 35.9433C67.0527 35.9433 64.3976 35.2548 62.051 33.8777C59.7154 32.4895 57.8646 30.501 56.4984 27.912C55.1434 25.312 54.4658 22.1942 54.4658 18.5586C54.4658 14.912 55.1434 11.7942 56.4984 9.20519C57.8646 6.60519 59.7154 4.61663 62.051 3.23951C64.3976 1.86239 67.0527 1.17383 70.0163 1.17383C72.9798 1.17383 75.6294 1.86239 77.965 3.23951C80.3116 4.61663 82.1624 6.60519 83.5175 9.20519C84.8836 11.7942 85.5667 14.912 85.5667 18.5586ZM79.4027 18.5586C79.4027 15.9916 79.0006 13.8268 78.1963 12.0641C77.4031 10.2904 76.3014 8.9518 74.8913 8.04841C73.4811 7.134 71.8561 6.6768 70.0163 6.6768C68.1764 6.6768 66.5514 7.134 65.1412 8.04841C63.7311 8.9518 62.6239 10.2904 61.8196 12.0641C61.0264 13.8268 60.6298 15.9916 60.6298 18.5586C60.6298 21.1255 61.0264 23.2959 61.8196 25.0696C62.6239 26.8323 63.7311 28.1709 65.1412 29.0853C66.5514 29.9887 68.1764 30.4404 70.0163 30.4404C71.8561 30.4404 73.4811 29.9887 74.8913 29.0853C76.3014 28.1709 77.4031 26.8323 78.1963 25.0696C79.0006 23.2959 79.4027 21.1255 79.4027 18.5586Z" fill="#333333"/>
</svg>
