<svg width="600" height="464" viewBox="0 0 600 464" fill="none" xmlns="http://www.w3.org/2000/svg">
<path d="M96.3564 62.1658C96.3564 67.7065 95.6296 73.0514 94.176 78.2004C92.7783 83.2934 90.7657 88.0786 88.138 92.556C85.5104 96.9775 82.3796 101.035 78.7456 104.729C75.1116 108.367 71.0583 111.501 66.5857 114.131C62.1131 116.762 57.3051 118.805 52.1616 120.26C47.074 121.659 41.7628 122.359 36.228 122.359H0V1.97285H36.228C41.7628 1.97285 47.074 2.70043 52.1616 4.15558C57.3051 5.55476 62.1131 7.56959 66.5857 10.2001C71.0583 12.8305 75.1116 15.9927 78.7456 19.6865C82.3796 23.3244 85.5104 27.382 88.138 31.8594C90.7657 36.2808 92.7783 41.0661 94.176 46.215C95.6296 51.3081 96.3564 56.625 96.3564 62.1658ZM72.2883 62.1658C72.2883 57.1847 71.3378 52.5114 69.437 48.1459C67.5921 43.7805 65.0203 39.9747 61.7218 36.7286C58.4791 33.4265 54.6495 30.824 50.2328 28.9211C45.872 27.0182 41.2038 26.0668 36.228 26.0668H24.2359V98.2647H36.228C41.2038 98.2647 45.872 97.3412 50.2328 95.4943C54.6495 93.5914 58.4791 91.0169 61.7218 87.7708C65.0203 84.4687 67.5921 80.635 69.437 76.2695C71.3378 71.8481 72.2883 67.1468 72.2883 62.1658Z" fill="white"/>
<path d="M199.299 122.359H116.864V1.97285H199.299V26.0668H140.932V50.1608H180.43V74.2547H140.932V98.2647H199.299V122.359Z" fill="white"/>
<path d="M219.806 38.0718C219.806 33.0907 220.757 28.4174 222.658 24.052C224.558 19.6865 227.13 15.8807 230.373 12.6346C233.671 9.33256 237.501 6.73008 241.862 4.82718C246.223 2.92429 250.891 1.97285 255.867 1.97285H311.047V26.0668H255.867C254.189 26.0668 252.624 26.3746 251.17 26.9903C249.717 27.6059 248.431 28.4734 247.313 29.5927C246.251 30.6561 245.412 31.9154 244.797 33.3705C244.182 34.8257 243.874 36.3928 243.874 38.0718C243.874 39.7508 244.182 41.3459 244.797 42.857C245.412 44.3122 246.251 45.5994 247.313 46.7188C248.431 47.7821 249.717 48.6216 251.17 49.2373C252.624 49.8529 254.189 50.1608 255.867 50.1608H279.935C284.911 50.1608 289.579 51.1122 293.94 53.0151C298.356 54.862 302.186 57.4365 305.429 60.7386C308.727 63.9847 311.299 67.8185 313.144 72.2399C315.045 76.6053 315.995 81.2786 315.995 86.2597C315.995 91.2408 315.045 95.9141 313.144 100.28C311.299 104.645 308.727 108.479 305.429 111.781C302.186 115.027 298.356 117.601 293.94 119.504C289.579 121.407 284.911 122.359 279.935 122.359H226.515V98.2647H279.935C281.612 98.2647 283.177 97.9569 284.631 97.3412C286.085 96.7256 287.342 95.8861 288.405 94.8227C289.523 93.7034 290.389 92.4161 291.004 90.961C291.619 89.5058 291.927 87.9387 291.927 86.2597C291.927 84.5807 291.619 83.0136 291.004 81.5584C290.389 80.1033 289.523 78.844 288.405 77.7806C287.342 76.6613 286.085 75.7938 284.631 75.1782C283.177 74.5625 281.612 74.2547 279.935 74.2547H255.867C250.891 74.2547 246.223 73.3033 241.862 71.4004C237.501 69.4975 233.671 66.923 230.373 63.6769C227.13 60.3748 224.558 56.541 222.658 52.1756C220.757 47.7542 219.806 43.0529 219.806 38.0718Z" fill="white"/>
<path d="M360.57 122.359H336.502V1.97285H360.57V122.359Z" fill="white"/>
<path d="M483.304 109.556C477.713 114.313 471.48 117.979 464.603 120.554C457.726 123.072 450.57 124.331 443.135 124.331C437.432 124.331 431.925 123.576 426.614 122.065C421.359 120.61 416.439 118.539 411.854 115.852C407.27 113.11 403.077 109.864 399.275 106.114C395.474 102.308 392.231 98.1108 389.547 93.5215C386.864 88.8762 384.767 83.8951 383.258 78.5782C381.804 73.2613 381.077 67.7485 381.077 62.0398C381.077 56.3311 381.804 50.8463 383.258 45.5854C384.767 40.3245 386.864 35.3994 389.547 30.81C392.231 26.1647 395.474 21.9672 399.275 18.2174C403.077 14.4116 407.27 11.1655 411.854 8.47905C416.439 5.79262 421.359 3.72183 426.614 2.26668C431.925 0.755559 437.432 0 443.135 0C450.57 0 457.726 1.28725 464.603 3.86175C471.48 6.38028 477.713 10.0182 483.304 14.7754L470.725 35.7631C467.091 32.0693 462.898 29.187 458.146 27.1162C453.394 24.9894 448.39 23.926 443.135 23.926C437.879 23.926 432.931 24.9335 428.291 26.9483C423.707 28.9631 419.681 31.7055 416.215 35.1755C412.749 38.5895 410.009 42.6191 407.997 47.2644C405.984 51.8538 404.978 56.7789 404.978 62.0398C404.978 67.3567 405.984 72.3378 407.997 76.9831C410.009 81.6284 412.749 85.686 416.215 89.156C419.681 92.626 423.707 95.3684 428.291 97.3832C432.931 99.398 437.879 100.405 443.135 100.405C446.154 100.405 449.089 100.042 451.94 99.3141C454.791 98.5865 457.503 97.5791 460.075 96.2918V62.0398H483.304V109.556Z" fill="white"/>
<path d="M600 122.359H574.255L527.879 43.1089V122.359H503.811V1.97285H529.557L575.932 81.3066V1.97285H600V122.359Z" fill="white"/>
<path fill-rule="evenodd" clip-rule="evenodd" d="M338.42 391.922H488.314V464H268.144V144.84H338.42V391.922Z" fill="white"/>
<path fill-rule="evenodd" clip-rule="evenodd" d="M544.986 269.593C558.605 269.593 571.289 265.671 581.927 258.917V464H509.989V260.106C520.215 266.129 532.188 269.593 544.986 269.593Z" fill="white"/>
<path d="M600 198.718C600 228.474 575.824 252.596 546.002 252.596C516.18 252.596 492.005 228.474 492.005 198.718C492.005 168.962 516.18 144.84 546.002 144.84C575.824 144.84 600 168.962 600 198.718Z" fill="white"/>
<path fill-rule="evenodd" clip-rule="evenodd" d="M0 144.84H15.7172V252.575C15.7172 262.099 17.3685 270.856 20.6713 278.844C23.974 286.756 28.4672 293.592 34.151 299.353C39.9115 305.114 46.5937 309.607 54.1977 312.833C61.8784 316.059 70.0583 317.672 78.7376 317.672C87.4936 317.672 95.6736 316.098 103.277 312.949C110.958 309.799 117.64 305.383 123.324 299.699C129.008 293.938 133.501 287.063 136.804 279.075C140.107 271.086 141.758 262.253 141.758 252.575C141.758 243.127 140.107 234.447 136.804 226.536C133.501 218.547 129.008 211.634 123.324 205.797C117.64 199.959 110.958 195.427 103.277 192.201C95.6736 188.898 87.4936 187.247 78.7376 187.247C75.8957 187.247 72.977 187.554 69.9815 188.169C66.986 188.706 64.0674 189.513 61.2255 190.588C58.4604 191.663 55.849 193.046 53.3912 194.736C51.0101 196.426 48.9748 198.346 47.285 200.497V144.84H268.483V191.971H236.8V260.179C236.8 263.482 236.186 266.708 234.957 269.857C233.728 272.93 232.038 275.695 229.887 278.153C227.737 280.611 225.202 282.608 222.284 284.144C219.442 285.604 216.408 286.333 213.182 286.333C209.879 286.333 206.768 285.796 203.85 284.72C201.008 283.645 198.512 282.032 196.361 279.881C194.21 277.654 192.482 274.927 191.177 271.701C189.948 268.398 189.333 264.557 189.333 260.179V191.971H157.996V260.179C157.996 269.012 159.417 277.001 162.259 284.144C165.177 291.211 169.133 297.241 174.125 302.233C179.195 307.149 185.07 310.951 191.753 313.64C198.435 316.328 205.578 317.672 213.182 317.672C216.792 317.672 220.363 316.943 223.896 315.483C227.506 314.024 231.04 312.564 234.496 311.105C233.344 313.947 231.846 316.559 230.003 318.94C228.159 321.398 226.009 323.51 223.551 325.277C221.17 327.043 218.558 328.426 215.716 329.425C212.875 330.423 209.918 330.922 206.845 330.922L189.333 330.692V358.895H0V144.84ZM226.792 358.895H268.483V299.814C268.406 308.493 266.717 316.635 263.414 324.24C260.111 331.844 255.579 338.488 249.819 344.172C244.135 349.856 237.491 354.35 229.887 357.653C228.865 358.097 227.833 358.511 226.792 358.895ZM110.075 252.575C110.075 247.813 109.23 243.396 107.54 239.325C105.927 235.177 103.7 231.605 100.858 228.61C98.0162 225.614 94.6751 223.271 90.8347 221.581C87.0711 219.892 83.0388 219.047 78.7376 219.047C74.4364 219.047 70.3656 220.007 66.5252 221.927C62.7617 223.771 59.4589 226.267 56.6171 229.416C53.7752 232.489 51.5478 236.06 49.9348 240.131C48.3219 244.126 47.5154 248.273 47.5154 252.575C47.5154 257.337 48.3219 261.754 49.9348 265.825C51.5478 269.896 53.7752 273.429 56.6171 276.425C59.4589 279.42 62.7617 281.802 66.5252 283.568C70.3656 285.258 74.4364 286.103 78.7376 286.103C83.0388 286.103 87.0711 285.258 90.8347 283.568C94.6751 281.802 98.0162 279.42 100.858 276.425C103.7 273.429 105.927 269.896 107.54 265.825C109.23 261.754 110.075 257.337 110.075 252.575Z" fill="white"/>
</svg>
