<svg width="468" height="362" viewBox="0 0 468 362" fill="none" xmlns="http://www.w3.org/2000/svg">
<path d="M75.158 48.5C75.158 52.8228 74.5911 56.9927 73.4573 61.0098C72.3671 64.9832 70.7972 68.7165 68.7477 72.2097C66.6981 75.6591 64.2561 78.8248 61.4216 81.7066C58.5871 84.5448 55.4255 86.99 51.9369 89.0422C48.4482 91.0944 44.698 92.6882 40.6861 93.8234C36.7178 94.915 32.575 95.4608 28.2578 95.4608H0V1.53916H28.2578C32.575 1.53916 36.7178 2.1068 40.6861 3.24207C44.698 4.33367 48.4482 5.90558 51.9369 7.9578C55.4255 10.01 58.5871 12.477 61.4216 15.3589C64.2561 18.1971 66.6981 21.3627 68.7477 24.8558C70.7972 28.3053 72.3671 32.0386 73.4573 36.0557C74.5911 40.0291 75.158 44.1772 75.158 48.5ZM56.3849 48.5C56.3849 44.6139 55.6435 40.9679 54.1609 37.5621C52.7218 34.1563 50.7158 31.1872 48.143 28.6546C45.6137 26.0784 42.6266 24.0481 39.1816 22.5635C35.7802 21.0789 32.1389 20.3366 28.2578 20.3366H18.904V76.6634H28.2578C32.1389 76.6634 35.7802 75.9429 39.1816 74.502C42.6266 73.0174 45.6137 71.0089 48.143 68.4764C50.7158 65.9002 52.7218 62.9092 54.1609 59.5034C55.6435 56.0539 56.3849 52.3861 56.3849 48.5Z" fill="black"/>
<path d="M155.453 95.4608H91.1536V1.53916H155.453V20.3366H109.927V39.134H140.736V57.9315H109.927V76.6634H155.453V95.4608Z" fill="black"/>
<path d="M171.449 29.7026C171.449 25.8165 172.19 22.1705 173.673 18.7647C175.156 15.3589 177.162 12.3897 179.691 9.85719C182.264 7.281 185.251 5.25062 188.652 3.76604C192.054 2.28145 195.695 1.53916 199.576 1.53916H242.617V20.3366H199.576C198.268 20.3366 197.047 20.5768 195.913 21.0571C194.779 21.5374 193.776 22.2142 192.904 23.0874C192.075 23.9171 191.421 24.8995 190.942 26.0348C190.462 27.17 190.222 28.3926 190.222 29.7026C190.222 31.0125 190.462 32.2569 190.942 33.4359C191.421 34.5711 192.075 35.5754 192.904 36.4487C193.776 37.2783 194.779 37.9333 195.913 38.4136C197.047 38.8939 198.268 39.134 199.576 39.134H218.349C222.23 39.134 225.871 39.8763 229.273 41.3609C232.718 42.8018 235.705 44.8104 238.234 47.3866C240.807 49.9191 242.813 52.9101 244.252 56.3596C245.735 59.7654 246.476 63.4113 246.476 67.2974C246.476 71.1836 245.735 74.8295 244.252 78.2353C242.813 81.6411 240.807 84.6321 238.234 87.2083C235.705 89.7408 232.718 91.7494 229.273 93.234C225.871 94.7186 222.23 95.4608 218.349 95.4608H176.682V76.6634H218.349C219.657 76.6634 220.878 76.4233 222.012 75.9429C223.146 75.4626 224.127 74.8077 224.956 73.9781C225.828 73.1048 226.504 72.1005 226.983 70.9652C227.463 69.83 227.703 68.6074 227.703 67.2974C227.703 65.9875 227.463 64.7649 226.983 63.6296C226.504 62.4944 225.828 61.5119 224.956 60.6823C224.127 59.809 223.146 59.1322 222.012 58.6519C220.878 58.1716 219.657 57.9315 218.349 57.9315H199.576C195.695 57.9315 192.054 57.1892 188.652 55.7046C185.251 54.22 182.264 52.2115 179.691 49.6789C177.162 47.1027 175.156 44.1118 173.673 40.7059C172.19 37.2565 171.449 33.5887 171.449 29.7026Z" fill="black"/>
<path d="M281.245 95.4608H262.472V1.53916H281.245V95.4608Z" fill="black"/>
<path d="M376.977 85.4726C372.616 89.1841 367.754 92.0441 362.39 94.0527C357.027 96.0175 351.445 97 345.645 97C341.197 97 336.902 96.4105 332.759 95.2316C328.66 94.0963 324.822 92.4808 321.246 90.3849C317.671 88.2453 314.4 85.7128 311.435 82.7873C308.469 79.8181 305.94 76.5433 303.847 72.9629C301.754 69.3387 300.119 65.4526 298.941 61.3045C297.807 57.1564 297.24 52.8555 297.24 48.4018C297.24 43.948 297.807 39.6689 298.941 35.5645C300.119 31.46 301.754 27.6176 303.847 24.0371C305.94 20.413 308.469 17.1382 311.435 14.2127C314.4 11.2435 317.671 8.71101 321.246 6.61512C324.822 4.51924 328.66 2.90367 332.759 1.7684C336.902 0.589467 341.197 0 345.645 0C351.445 0 357.027 1.00428 362.39 3.01283C367.754 4.97772 372.616 7.81589 376.977 11.5273L367.165 27.9014C364.331 25.0196 361.06 22.7709 357.354 21.1553C353.647 19.4961 349.744 18.6664 345.645 18.6664C341.546 18.6664 337.687 19.4524 334.067 21.0243C330.491 22.5962 327.352 24.7358 324.648 27.4429C321.944 30.1065 319.807 33.2503 318.238 36.8744C316.668 40.4549 315.883 44.2973 315.883 48.4018C315.883 52.5499 316.668 56.436 318.238 60.0601C319.807 63.6842 321.944 66.8499 324.648 69.5571C327.352 72.2642 330.491 74.4038 334.067 75.9757C337.687 77.5476 341.546 78.3336 345.645 78.3336C348 78.3336 350.289 78.0497 352.513 77.4821C354.737 76.9145 356.852 76.1285 358.858 75.1242V48.4018H376.977V85.4726Z" fill="black"/>
<path d="M468 95.4608H447.919L411.746 33.6323V95.4608H392.973V1.53916H413.054L449.227 63.4332V1.53916H468V95.4608Z" fill="black"/>
<path fill-rule="evenodd" clip-rule="evenodd" d="M263.968 305.767H380.885V362H209.153V113H263.968V305.767Z" fill="black"/>
<path fill-rule="evenodd" clip-rule="evenodd" d="M425.089 210.329C435.712 210.329 445.605 207.269 453.903 202V362H397.792V202.928C405.768 207.627 415.107 210.329 425.089 210.329Z" fill="black"/>
<path d="M468 155.034C468 178.249 449.143 197.068 425.882 197.068C402.621 197.068 383.764 178.249 383.764 155.034C383.764 131.819 402.621 113 425.882 113C449.143 113 468 131.819 468 155.034Z" fill="black"/>
<path fill-rule="evenodd" clip-rule="evenodd" d="M0 113H12.2594V197.052C12.2594 204.483 13.5475 211.314 16.1236 217.547C18.6997 223.719 22.2044 229.052 26.6377 233.547C31.131 238.041 36.3431 241.547 42.2742 244.064C48.2651 246.581 54.6455 247.839 61.4153 247.839C68.245 247.839 74.6254 246.611 80.5565 244.154C86.5474 241.697 91.7596 238.251 96.1929 233.817C100.626 229.322 104.131 223.959 106.707 217.726C109.283 211.494 110.571 204.603 110.571 197.052C110.571 189.681 109.283 182.909 106.707 176.737C104.131 170.505 100.626 165.111 96.1929 160.557C91.7596 156.003 86.5474 152.467 80.5565 149.95C74.6254 147.373 68.245 146.085 61.4153 146.085C59.1986 146.085 56.9221 146.325 54.5856 146.804C52.2491 147.223 49.9726 147.853 47.7559 148.692C45.5991 149.531 43.5622 150.609 41.6451 151.928C39.7879 153.246 38.2003 154.744 36.8823 156.422V113H209.417V149.77H184.704V202.985C184.704 205.561 184.225 208.078 183.266 210.535C182.308 212.932 180.99 215.09 179.312 217.007C177.635 218.925 175.658 220.483 173.381 221.681C171.164 222.82 168.798 223.389 166.282 223.389C163.706 223.389 161.279 222.97 159.003 222.131C156.786 221.292 154.839 220.034 153.162 218.356C151.484 216.618 150.136 214.49 149.118 211.973C148.159 209.397 147.68 206.4 147.68 202.985V149.77H123.237V202.985C123.237 209.876 124.345 216.108 126.562 221.681C128.838 227.195 131.924 231.899 135.818 235.794C139.772 239.629 144.355 242.596 149.567 244.693C154.779 246.79 160.351 247.839 166.282 247.839C169.098 247.839 171.883 247.27 174.639 246.131C177.455 244.993 180.211 243.854 182.907 242.716C182.008 244.933 180.84 246.97 179.402 248.828C177.964 250.746 176.287 252.394 174.37 253.772C172.512 255.15 170.476 256.229 168.259 257.008C166.042 257.787 163.736 258.176 161.339 258.176L147.68 257.997V280H0V113ZM176.898 280H209.417V233.906C209.357 240.678 208.039 247.03 205.463 252.963C202.887 258.896 199.352 264.079 194.859 268.514C190.425 272.948 185.243 276.454 179.312 279.031C178.515 279.377 177.71 279.7 176.898 280ZM85.8585 197.052C85.8585 193.337 85.1995 189.891 83.8815 186.715C82.6233 183.479 80.886 180.692 78.6693 178.355C76.4527 176.018 73.8466 174.19 70.8511 172.872C67.9155 171.553 64.7702 170.894 61.4153 170.894C58.0604 170.894 54.8851 171.643 51.8897 173.141C48.9541 174.58 46.378 176.527 44.1613 178.984C41.9447 181.381 40.2073 184.168 38.9492 187.344C37.6911 190.46 37.062 193.696 37.062 197.052C37.062 200.767 37.6911 204.213 38.9492 207.389C40.2073 210.565 41.9447 213.322 44.1613 215.659C46.378 217.996 48.9541 219.854 51.8897 221.232C54.8851 222.55 58.0604 223.21 61.4153 223.21C64.7702 223.21 67.9155 222.55 70.8511 221.232C73.8466 219.854 76.4527 217.996 78.6693 215.659C80.886 213.322 82.6233 210.565 83.8815 207.389C85.1995 204.213 85.8585 200.767 85.8585 197.052Z" fill="#010101"/>
</svg>
