<svg width="444" height="305" viewBox="0 0 444 305" fill="none" xmlns="http://www.w3.org/2000/svg">
<path fill-rule="evenodd" clip-rule="evenodd" d="M342.954 2.90723C337.767 0.968994 332.367 0 326.768 0C325.497 0 324.237 0.0498047 322.99 0.149475C322.997 0.529846 323 0.911011 323 1.29297C323 8.63306 321.793 15.6912 319.566 22.2795C321.854 21.5982 324.252 21.2559 326.768 21.2559C330.283 21.2559 333.626 21.9688 336.798 23.3867L336.808 23.3906C340.004 24.7821 342.819 26.7147 345.263 29.1963L347.074 31.0361L358.357 12.2305L357.064 11.1328C352.848 7.54907 348.141 4.80505 342.954 2.90723ZM301.402 49.903C295.861 54.9105 289.46 58.984 282.446 61.8751C283.479 64.8809 284.779 67.7401 286.347 70.4502L286.353 70.46C288.377 73.9188 290.824 77.0814 293.688 79.9453L293.698 79.9561C296.557 82.7725 299.711 85.2119 303.157 87.2715L303.173 87.2803C306.636 89.3076 310.35 90.8674 314.307 91.9619C318.321 93.1014 322.476 93.6699 326.768 93.6699C332.367 93.6699 337.767 92.7214 342.955 90.8232L342.968 90.8184C348.149 88.8805 352.851 86.1182 357.064 82.5371L357.77 81.9385V44.7441H336.998V70.1768C335.603 70.796 334.149 71.3015 332.631 71.6885C330.738 72.171 328.785 72.4141 326.768 72.4141C323.236 72.4141 319.935 71.7393 316.846 70.3994C313.762 69.0444 311.067 67.2076 308.746 64.8867C306.427 62.5676 304.59 59.8526 303.233 56.7256C302.298 54.5679 301.686 52.2961 301.402 49.903Z" fill="white"/>
<path fill-rule="evenodd" clip-rule="evenodd" d="M28.209 1.42285C32.3823 1.42285 36.4028 1.97138 40.2627 3.07422C44.1334 4.12829 47.7605 5.64664 51.1396 7.63184C54.5149 9.6148 57.5765 12 60.3203 14.7842L60.8311 15.3027C63.3571 17.9104 65.5491 20.7957 67.4062 23.9551L67.7744 24.5859C69.5837 27.751 70.9812 31.1514 71.9697 34.7812C73.0726 38.6412 73.6211 42.6616 73.6211 46.835C73.6211 51.0033 73.0732 55.0364 71.9746 58.9287C70.9198 62.7682 69.3996 66.3825 67.4121 69.7656L67.4062 69.7754C65.4262 73.1036 63.0668 76.1577 60.3311 78.9355L60.3203 78.9463C57.5755 81.6911 54.5138 84.0558 51.1396 86.0381C47.759 88.0242 44.1295 89.5638 40.2568 90.6582L40.2432 90.6621C36.3891 91.7209 32.3753 92.2471 28.209 92.2471H0.0527344V1.42285H28.209ZM21.5508 70.8701H28.209C31.5439 70.8701 34.6445 70.253 37.5312 69.0332C40.4979 67.7561 43.0483 66.0406 45.2012 63.8877C47.3978 61.6911 49.1105 59.1424 50.3438 56.2275L50.3486 56.2158C51.6097 53.2856 52.2441 50.1651 52.2441 46.835C52.2441 43.5046 51.61 40.4072 50.3525 37.5225L50.3477 37.5127L50.3438 37.5029C49.1118 34.5911 47.4021 32.0672 45.2129 29.915L45.1895 29.8916C43.0372 27.7022 40.4896 25.9694 37.5293 24.6953C34.6445 23.4378 31.5393 22.7998 28.209 22.7998H21.5508V70.8701Z" fill="white"/>
<path d="M149.139 22.7998H106.998V36.1768H135.516V57.5537H106.998V70.8701H149.139V92.2471H85.6211V1.42285H149.139V22.7998Z" fill="white"/>
<path fill-rule="evenodd" clip-rule="evenodd" d="M195.613 22.7998H189.174C188.214 22.7998 187.35 22.9744 186.562 23.3076C185.751 23.6511 185.038 24.1313 184.412 24.7568C183.836 25.3325 183.372 26.0222 183.023 26.8467C182.69 27.6344 182.516 28.4978 182.516 29.458C182.516 30.4166 182.69 31.3091 183.032 32.1514C183.377 32.9592 183.837 33.6636 184.413 34.2783C185.033 34.8595 185.745 35.3232 186.562 35.6689C187.35 36.0022 188.214 36.1768 189.174 36.1768H202.052C209.638 48.2101 221.034 57.6014 234.545 62.6579C234.572 63.172 234.586 63.69 234.586 64.2119C234.586 68.0588 233.85 71.6953 232.368 75.1016C230.937 78.4835 228.938 81.4658 226.371 84.0322C223.842 86.5611 220.863 88.5577 217.453 90.0254C214.043 91.5102 210.402 92.2471 206.551 92.2471H165.982V70.8701H206.551C207.511 70.8701 208.374 70.6956 209.162 70.3623C209.987 70.0135 210.676 69.5493 211.252 68.9736C211.877 68.3481 212.358 67.6351 212.701 66.8232C213.034 66.0355 213.209 65.1721 213.209 64.2119C213.209 63.2517 213.034 62.3883 212.701 61.6006C212.362 60.7982 211.891 60.12 211.288 59.5469L211.251 59.5117L211.216 59.4746C210.643 58.8713 209.965 58.401 209.162 58.0615C208.374 57.7283 207.511 57.5537 206.551 57.5537H189.174C185.319 57.5537 181.676 56.8154 178.264 55.3281C174.898 53.8608 171.926 51.868 169.365 49.3506L169.342 49.3271C166.824 46.7663 164.832 43.7948 163.364 40.4287C161.881 36.9814 161.139 33.3127 161.139 29.458C161.139 25.6035 161.877 21.9599 163.364 18.5479C164.833 15.1787 166.829 12.223 169.354 9.69824C171.916 7.13623 174.89 5.11884 178.264 3.64844C181.676 2.16113 185.319 1.42285 189.174 1.42285H192C192.015 8.90985 193.285 16.102 195.613 22.7998Z" fill="white"/>
<path fill-rule="evenodd" clip-rule="evenodd" d="M246.586 92.2471H267.963V65.9619C264.556 66.5088 261.061 66.793 257.5 66.793C253.781 66.793 250.135 66.4831 246.586 65.8878V92.2471Z" fill="white"/>
<path d="M421.84 53.2607V1.42285H443.217V92.2471H421.482L391.146 40.4609V92.2471H369.77V1.42285H391.504L421.84 53.2607Z" fill="white"/>
<path d="M123.33 287.865V265.315L135.795 265.479C137.981 265.479 140.086 265.123 142.109 264.413C144.131 263.702 145.99 262.718 147.685 261.461C149.434 260.203 150.965 258.7 152.277 256.95C153.589 255.256 154.655 253.397 155.475 251.374C153.015 252.413 150.5 253.452 147.931 254.49C145.416 255.529 142.874 256.048 140.305 256.048C134.893 256.048 129.808 255.092 125.052 253.178C120.296 251.265 116.114 248.559 112.506 245.06C108.953 241.507 106.137 237.215 104.06 232.186C102.037 227.102 101.026 221.416 101.026 215.13V166.585H123.33V215.13C123.33 218.246 123.768 220.979 124.642 223.33C125.572 225.626 126.802 227.567 128.332 229.152C129.863 230.683 131.64 231.831 133.663 232.596C135.74 233.361 137.954 233.744 140.305 233.744C142.601 233.744 144.76 233.225 146.783 232.186C148.86 231.093 150.664 229.671 152.195 227.922C153.726 226.172 154.928 224.204 155.803 222.018C156.678 219.776 157.115 217.48 157.115 215.13V166.585H179.665V243.338C179.611 249.516 178.408 255.31 176.057 260.723C173.707 266.135 170.481 270.863 166.381 274.909C162.336 278.954 157.607 282.152 152.195 284.503C146.783 286.854 140.988 288.029 134.811 288.029L123.33 287.865Z" fill="white"/>
<path d="M89.7098 209.717C89.7098 216.606 88.5344 222.892 86.1837 228.578C83.833 234.263 80.6349 239.156 76.5895 243.256C72.5441 247.302 67.788 250.445 62.3212 252.686C56.9091 254.928 51.087 256.048 44.8549 256.048C38.6774 256.048 32.8553 254.9 27.3885 252.604C21.9764 250.308 17.2203 247.11 13.1203 243.01C9.07484 238.91 5.87678 234.045 3.52607 228.414C1.17536 222.728 0 216.496 0 209.717V131.652H22.4684V172.653C23.6711 171.122 25.1198 169.755 26.8145 168.553C28.5639 167.35 30.4226 166.366 32.3906 165.601C34.4133 164.835 36.4907 164.261 38.6228 163.879C40.7548 163.441 42.8322 163.223 44.8549 163.223C51.087 163.223 56.9091 164.398 62.3212 166.749C67.788 169.045 72.5441 172.27 76.5895 176.425C80.6349 180.58 83.833 185.5 86.1837 191.185C88.5344 196.816 89.7098 202.993 89.7098 209.717ZM67.1593 209.717C67.1593 206.328 66.558 203.185 65.3553 200.287C64.2073 197.335 62.6219 194.793 60.5992 192.661C58.5765 190.529 56.1984 188.862 53.465 187.659C50.7863 186.456 47.9163 185.855 44.8549 185.855C41.7935 185.855 38.8961 186.538 36.1627 187.905C33.484 189.217 31.1333 190.994 29.1106 193.235C27.0879 195.422 25.5025 197.964 24.3545 200.861C23.2065 203.704 22.6324 206.656 22.6324 209.717C22.6324 213.107 23.2065 216.25 24.3545 219.148C25.5025 222.045 27.0879 224.56 29.1106 226.692C31.1333 228.824 33.484 230.519 36.1627 231.776C38.8961 232.979 41.7935 233.58 44.8549 233.58C47.9163 233.58 50.7863 232.979 53.465 231.776C56.1984 230.519 58.5765 228.824 60.5992 226.692C62.6219 224.56 64.2073 222.045 65.3553 219.148C66.558 216.25 67.1593 213.107 67.1593 209.717Z" fill="white"/>
<path d="M356 304.793H228V114.793H264.59V266.766H356V304.793Z" fill="white"/>
<path fill-rule="evenodd" clip-rule="evenodd" d="M427 304.793V201.07C418.775 205.365 409.421 207.793 399.5 207.793C389.979 207.793 380.98 205.557 373 201.581V304.793H427Z" fill="white"/>
<circle cx="399.5" cy="150.293" r="43.5" fill="white"/>
<circle cx="256.5" cy="32.293" r="30.5" fill="white"/>
</svg>
